<?xml version="1.0" encoding="utf-8"?>
<!-- Generator: Adobe Illustrator 15.1.0, SVG Export Plug-In . SVG Version: 6.00 Build 0)  -->
<!DOCTYPE svg PUBLIC "-//W3C//DTD SVG 1.1//EN" "http://www.w3.org/Graphics/SVG/1.1/DTD/svg11.dtd">
<svg version="1.1" id="Layer_1" xmlns="http://www.w3.org/2000/svg" xmlns:xlink="http://www.w3.org/1999/xlink" x="0px" y="0px"
	 width="263.167px" height="21.335px" viewBox="0 0 263.167 21.335" enable-background="new 0 0 263.167 21.335"
	 xml:space="preserve">
<g>
	<path fill="#333333" d="M170.04,9.754l3.131-1.325c0,0-1.113-3.555-5.65-3.555c-4.539,0-6.957,3.03-6.957,6.792
		c0,3.764,2.576,6.705,6.703,6.705s6.59-2.58,6.59-7.46h-6.576v2.544l2.654,0.004c0,0-0.059,2.19-2.656,2.19
		c-2.604,0-3.229-2.882-3.229-4.026c0-1.146,0.641-3.871,3.254-3.871C167.304,7.752,169.142,7.546,170.04,9.754z"/>
	<path fill="#333333" d="M208.722,9.754l3.133-1.325c0,0-1.115-3.555-5.654-3.555s-6.957,3.03-6.957,6.792
		c0,3.764,2.578,6.705,6.707,6.705c4.127,0,6.59-2.58,6.59-7.46h-6.58v2.544l2.656,0.004c0,0-0.057,2.19-2.656,2.19
		c-2.602,0-3.229-2.882-3.229-4.026c0-1.146,0.641-3.871,3.25-3.871C205.979,7.752,207.821,7.546,208.722,9.754z"/>
	<path fill="#333333" d="M178.39,9.269v1.379h0.062c0,0,0.742-1.455,2.451-1.455c1.713,0,0.947,0,0.947,0v2.959h-0.162
		c0,0-0.381-0.232-1.145-0.232s-2.156,0.205-2.156,2.688c0,2.479,0,3.369,0,3.369h-3.049V9.269H178.39z"/>
	<rect x="182.917" y="9.269" fill="#333333" width="3.098" height="8.707"/>
	<circle fill="#333333" cx="184.464" cy="5.984" r="1.702"/>
	<rect x="225.519" y="9.269" fill="#333333" width="3.098" height="8.707"/>
	<circle fill="#333333" cx="227.069" cy="5.984" r="1.702"/>
	<path fill="#333333" d="M194.499,3.914v6.09c-0.127-0.128-1.016-0.974-2.568-0.974c-1.676,0-4.395,1.146-4.395,4.592
		c0,3.444,2.734,4.627,4.379,4.627c1.52,0,2.453-0.938,2.584-1.074v0.802h3.094V3.914H194.499z M192.685,15.582
		c-1.059,0-1.912-0.854-1.912-1.908c0-1.053,0.854-1.907,1.912-1.907s1.918,0.854,1.918,1.907S193.743,15.582,192.685,15.582z"/>
	<path fill="#333333" d="M220.362,9.193v0.811c-0.125-0.128-1.016-0.974-2.566-0.974c-1.678,0-4.396,1.146-4.396,4.592
		c0,3.444,2.734,4.627,4.379,4.627c1.521,0,2.453-0.938,2.584-1.074v0.802h3.096V9.193H220.362z M218.55,15.582
		c-1.059,0-1.92-0.854-1.92-1.908c0-1.053,0.861-1.907,1.92-1.907c1.057,0,1.914,0.854,1.914,1.907S219.606,15.582,218.55,15.582z"
		/>
	<path fill="#333333" d="M236.497,9.03c0,0-1.756-0.124-2.807,1.364V9.269h-3.094v8.707h3.094v-4.872
		c0.045-0.578,0.291-1.578,1.518-1.578c0,0,1.426-0.056,1.426,1.929c0,1.983,0.021,4.521,0.021,4.521h3.115v-5.148
		C239.771,12.828,240.136,9.03,236.497,9.03z"/>
	<polygon fill="#ED2F24" points="254.048,11.942 256.765,10.771 254.399,8.985 	"/>
	<polygon fill="#E81E25" points="251.706,10.166 254.399,8.985 254.048,11.942 	"/>
	<polygon fill="#DE5198" points="256.37,13.647 256.765,10.771 254.048,11.942 	"/>
	<polygon fill="#E6E539" points="251.306,12.971 254.048,11.942 251.706,10.166 	"/>
	<polygon fill="#EBE230" points="253.694,14.796 254.048,11.942 251.306,12.971 	"/>
	<polygon fill="#D93C95" points="256.37,13.647 254.048,11.942 253.694,14.796 	"/>
	<polygon fill="#63C9E1" points="249.335,8.391 252.05,7.219 249.69,5.433 	"/>
	<polygon fill="#6CBDD9" points="246.993,6.613 249.69,5.433 249.335,8.391 	"/>
	<polygon fill="#F7ECED" points="251.655,10.095 252.05,7.219 249.335,8.391 	"/>
	<polygon fill="#DF3A92" points="246.591,9.417 249.335,8.391 246.993,6.613 	"/>
	<polygon fill="#E35298" points="248.983,11.246 249.335,8.391 246.591,9.417 	"/>
	<polygon fill="#FCECF0" points="251.655,10.095 249.335,8.391 248.983,11.246 	"/>
	<polygon fill="#FFFFFF" points="248.649,14.203 251.364,13.033 249.003,11.246 	"/>
	<polygon fill="#F0F8F9" points="246.31,12.425 249.003,11.246 248.649,14.203 	"/>
	<polygon fill="#FFFFFF" points="250.974,15.91 251.364,13.033 248.649,14.203 	"/>
	<polygon fill="#51C4D1" points="245.901,15.231 248.649,14.203 246.31,12.425 	"/>
	<polygon fill="#4DC5DB" points="248.296,17.057 248.649,14.203 245.901,15.231 	"/>
	<polygon fill="#F2F5FA" points="250.974,15.91 248.649,14.203 248.296,17.057 	"/>
	<polygon fill="#FFFFFF" points="253.354,17.753 256.065,16.583 253.706,14.796 	"/>
	<polygon fill="#FFFFFF" points="251.011,15.979 253.706,14.796 253.354,17.753 	"/>
	<polygon fill="#63C9DF" points="255.673,19.46 256.065,16.583 253.354,17.753 	"/>
	<polygon fill="#ED3024" points="250.608,18.785 253.354,17.753 251.011,15.979 	"/>
	<polygon fill="#E41F26" points="252.997,20.61 253.354,17.753 250.608,18.785 	"/>
	<polygon fill="#71BEC7" points="255.673,19.46 253.354,17.753 252.997,20.61 	"/>
	<polygon fill="#FDE5D8" points="258.7,15.535 261.413,14.365 259.056,12.578 	"/>
	<polygon fill="#FDE5D7" points="256.358,13.757 259.056,12.578 258.7,15.535 	"/>
	<polygon fill="#E41F26" points="261.022,17.24 261.413,14.365 258.7,15.535 	"/>
	<polygon fill="#FFFFFF" points="255.956,16.564 258.7,15.535 256.358,13.757 	"/>
	<polygon fill="#F9FAE8" points="258.349,18.391 258.7,15.535 255.956,16.564 	"/>
	<polygon fill="#EB3124" points="261.022,17.24 258.7,15.535 258.349,18.391 	"/>
	<polygon fill="#EAE61D" points="259.507,9.704 262.224,8.533 259.862,6.748 	"/>
	<polygon fill="#E9E61F" points="257.167,7.928 259.862,6.748 259.507,9.704 	"/>
	<polygon fill="#E7E51F" points="261.827,11.412 262.224,8.533 259.507,9.704 	"/>
	<polygon fill="#FFFCE9" points="256.765,10.733 259.507,9.704 257.167,7.928 	"/>
	<polygon fill="#FFFFFF" points="259.155,12.559 259.507,9.704 256.765,10.733 	"/>
	<polygon fill="#E7E51F" points="261.827,11.412 259.507,9.704 259.155,12.559 	"/>
	<polygon fill="#DC3A94" points="254.796,6.129 257.513,4.957 255.147,3.173 	"/>
	<polygon fill="#E25391" points="252.454,4.352 255.147,3.173 254.796,6.129 	"/>
	<polygon fill="#FFFDF0" points="257.114,7.834 257.513,4.957 254.796,6.129 	"/>
	<polygon fill="#F9FAE8" points="252.05,7.158 254.796,6.129 252.454,4.352 	"/>
	<polygon fill="#FFFFFF" points="254.44,8.985 254.796,6.129 252.05,7.158 	"/>
	<polygon fill="#FAFBEC" points="257.114,7.834 254.796,6.129 254.44,8.985 	"/>
</g>
<text transform="matrix(1 0 0 1 138.501 17.9233)" fill="#999999" font-family="'Verdana'" font-size="12">by</text>
<path d="M0,20.449V0.056h1.143v19.223h5.741v1.17H0z"/>
<path d="M24.99,20.449l-2.342-6.111h-9.282l-2.371,6.111H9.853l8.14-21.05l8.168,21.05H24.99z M17.993,2.37l-4.169,10.795h8.339
	L17.993,2.37z"/>
<path d="M41.098,18.792c-1.238,1.104-2.751,1.656-4.541,1.656h-6.369V0.056h4.97c1.58,0,2.837,0.41,3.77,1.229
	c0.99,0.876,1.485,2.095,1.485,3.655c0,1.79-0.733,3.104-2.199,3.941c1.428,0.285,2.58,0.934,3.456,1.94
	c0.857,1.011,1.285,2.249,1.285,3.714C42.955,16.289,42.335,17.707,41.098,18.792z M38.1,2.256
	c-0.781-0.687-1.733-1.028-2.856-1.028h-3.913v7.426h4.084c1.104,0,2.018-0.343,2.742-1.027c0.723-0.687,1.085-1.58,1.085-2.686
	C39.242,3.798,38.86,2.903,38.1,2.256z M40.242,11.082c-0.971-0.838-2.19-1.257-3.656-1.257h-5.255v9.454h5.255
	c1.447,0,2.675-0.438,3.684-1.312c1.028-0.875,1.542-2.02,1.542-3.428C41.812,13.109,41.289,11.957,40.242,11.082z"/>
<path fill="#999999" d="M63.975,19.25c-1.066,0.781-2.513,1.256-4.341,1.431c-0.209,0.021-0.438,0.03-0.686,0.043
	c-0.248,0.01-0.504,0.014-0.771,0.014c-3.084,0-5.598-0.971-7.54-2.911c-1.961-1.961-2.941-4.484-2.941-7.57
	c0-3.085,0.971-5.599,2.913-7.54c1.961-1.961,4.484-2.942,7.568-2.942c1.751,0,3.332,0.257,4.741,0.771
	c0.837,0.324,1.646,0.791,2.428,1.398v1.455c-0.8-0.666-1.676-1.199-2.628-1.599c-1.447-0.59-2.961-0.885-4.541-0.885
	c-2.704,0-4.932,0.876-6.683,2.627c-1.752,1.752-2.627,3.988-2.627,6.712s0.866,4.954,2.599,6.685
	c1.751,1.752,3.988,2.627,6.711,2.627c1.694,0,3.17-0.308,4.427-0.914c0.724-0.36,1.638-0.942,2.742-1.741v1.342L63.975,19.25z"/>
<path fill="#999999" d="M85.909,17.792c-1.961,1.961-4.483,2.94-7.568,2.94c-3.084,0-5.598-0.971-7.54-2.912
	c-1.962-1.961-2.94-4.483-2.94-7.569c0-3.085,0.972-5.599,2.914-7.54c1.961-1.961,4.482-2.942,7.566-2.942
	c3.064,0,5.59,0.972,7.568,2.913c1.961,1.961,2.941,4.484,2.941,7.569C88.851,13.337,87.87,15.851,85.909,17.792z M85.081,3.541
	c-1.752-1.751-4-2.627-6.74-2.627c-2.703,0-4.932,0.876-6.684,2.627c-1.752,1.752-2.627,3.988-2.627,6.712
	c0,2.723,0.865,4.952,2.6,6.684c1.75,1.752,3.988,2.627,6.711,2.627c2.742,0,4.988-0.855,6.74-2.568c1.73-1.731,2.6-3.979,2.6-6.742
	C87.681,7.51,86.813,5.274,85.081,3.541z"/>
<path fill="#999999" d="M107.13,20.449l-2.342-6.111h-9.281l-2.372,6.111h-1.144l8.141-21.05l8.169,21.05H107.13z M100.135,2.37
	l-4.171,10.795h8.342L100.135,2.37z"/>
<path fill="#999999" d="M115.385,1.227v19.222h-1.171V1.227H109.7V0.056h10.195v1.171H115.385z"/>
<g>
	<path fill="#999999" d="M124.409,0.55h-1.367V0.056h3.328v0.493h-1.373v4h-0.588V0.55L124.409,0.55z"/>
	<path fill="#999999" d="M130.653,2.577c-0.033-0.627-0.072-1.388-0.072-1.94h-0.016c-0.158,0.52-0.34,1.087-0.564,1.707
		l-0.793,2.18h-0.439l-0.731-2.14c-0.213-0.64-0.388-1.214-0.515-1.747h-0.016c-0.014,0.56-0.047,1.307-0.086,1.987l-0.12,1.926
		h-0.554l0.312-4.494h0.738l0.77,2.174c0.188,0.554,0.334,1.046,0.453,1.514h0.017c0.116-0.453,0.276-0.947,0.479-1.514l0.799-2.174
		h0.74l0.28,4.494h-0.573L130.653,2.577z"/>
</g>
</svg>
