<?xml version="1.0" encoding="utf-8"?>
<!-- Generator: Adobe Illustrator 15.1.0, SVG Export Plug-In . SVG Version: 6.00 Build 0)  -->
<!DOCTYPE svg PUBLIC "-//W3C//DTD SVG 1.1//EN" "http://www.w3.org/Graphics/SVG/1.1/DTD/svg11.dtd">
<svg version="1.1" id="Layer_1" xmlns="http://www.w3.org/2000/svg" xmlns:xlink="http://www.w3.org/1999/xlink" x="0px" y="0px"
	 width="131.334px" height="21.335px" viewBox="0 0 131.334 21.335" enable-background="new 0 0 131.334 21.335"
	 xml:space="preserve">
<path d="M0,20.449V0.056h1.143v19.223h5.741v1.17H0z"/>
<path d="M24.99,20.449l-2.342-6.111h-9.282l-2.371,6.111H9.853l8.14-21.05l8.168,21.05H24.99z M17.993,2.37l-4.169,10.795h8.339
	L17.993,2.37z"/>
<path d="M41.098,18.792c-1.238,1.105-2.751,1.656-4.541,1.656h-6.369V0.056h4.97c1.58,0,2.837,0.41,3.77,1.229
	c0.99,0.876,1.485,2.095,1.485,3.655c0,1.79-0.733,3.104-2.199,3.941c1.428,0.285,2.58,0.934,3.456,1.94
	c0.857,1.011,1.285,2.249,1.285,3.714C42.955,16.289,42.335,17.707,41.098,18.792z M38.1,2.256
	c-0.781-0.687-1.733-1.028-2.856-1.028h-3.913v7.426h4.084c1.104,0,2.018-0.343,2.742-1.027c0.723-0.687,1.085-1.58,1.085-2.686
	C39.242,3.798,38.86,2.903,38.1,2.256z M40.242,11.082c-0.971-0.838-2.19-1.257-3.656-1.257h-5.255v9.454h5.255
	c1.447,0,2.675-0.438,3.684-1.312c1.028-0.875,1.542-2.02,1.542-3.428C41.812,13.109,41.289,11.957,40.242,11.082z"/>
<path fill="#999999" d="M63.975,19.25c-1.066,0.781-2.513,1.256-4.341,1.43c-0.209,0.02-0.438,0.031-0.686,0.043
	c-0.248,0.01-0.504,0.014-0.771,0.014c-3.084,0-5.598-0.971-7.54-2.912c-1.961-1.961-2.941-4.484-2.941-7.569
	c0-3.085,0.971-5.599,2.913-7.54c1.961-1.961,4.484-2.942,7.568-2.942c1.751,0,3.332,0.257,4.741,0.771
	c0.837,0.324,1.646,0.791,2.428,1.398v1.455c-0.8-0.666-1.676-1.199-2.628-1.599c-1.447-0.59-2.961-0.885-4.541-0.885
	c-2.704,0-4.932,0.876-6.683,2.627c-1.752,1.752-2.627,3.988-2.627,6.712s0.866,4.953,2.599,6.685
	c1.751,1.752,3.988,2.627,6.711,2.627c1.694,0,3.17-0.307,4.427-0.914c0.724-0.361,1.638-0.943,2.742-1.742v1.342L63.975,19.25z"/>
<path fill="#999999" d="M85.909,17.792c-1.961,1.961-4.483,2.941-7.568,2.941c-3.084,0-5.598-0.971-7.54-2.912
	c-1.962-1.961-2.941-4.484-2.941-7.569c0-3.085,0.972-5.599,2.914-7.54c1.961-1.961,4.483-2.942,7.567-2.942
	c3.064,0,5.589,0.972,7.568,2.913c1.961,1.961,2.941,4.484,2.941,7.569C88.851,13.337,87.87,15.851,85.909,17.792z M85.081,3.541
	c-1.752-1.751-4-2.627-6.74-2.627c-2.704,0-4.932,0.876-6.684,2.627c-1.752,1.752-2.627,3.988-2.627,6.712
	c0,2.723,0.866,4.952,2.6,6.684c1.75,1.752,3.988,2.627,6.711,2.627c2.742,0,4.988-0.855,6.74-2.568
	c1.73-1.732,2.599-3.98,2.599-6.742C87.68,7.51,86.813,5.274,85.081,3.541z"/>
<path fill="#999999" d="M107.13,20.449l-2.342-6.111h-9.281l-2.372,6.111h-1.144l8.141-21.05l8.169,21.05H107.13z M100.135,2.37
	l-4.171,10.795h8.341L100.135,2.37z"/>
<path fill="#999999" d="M115.385,1.227v19.222h-1.171V1.227H109.7V0.056h10.195v1.171H115.385z"/>
<g>
	<path fill="#999999" d="M124.409,0.55h-1.367V0.056h3.328v0.493h-1.373v4h-0.588V0.55L124.409,0.55z"/>
	<path fill="#999999" d="M130.653,2.577c-0.033-0.627-0.072-1.388-0.072-1.94h-0.016c-0.158,0.52-0.34,1.087-0.564,1.707
		l-0.793,2.18h-0.44l-0.731-2.14c-0.213-0.64-0.388-1.214-0.515-1.747h-0.015c-0.014,0.56-0.047,1.307-0.086,1.987l-0.12,1.926
		h-0.554l0.312-4.494h0.739l0.769,2.174c0.188,0.554,0.334,1.046,0.453,1.514h0.017c0.116-0.453,0.276-0.947,0.479-1.514
		l0.799-2.174h0.74l0.281,4.494h-0.574L130.653,2.577z"/>
</g>
</svg>
