<?xml version="1.0" encoding="utf-8"?>
<!-- Generator: Adobe Illustrator 15.1.0, SVG Export Plug-In . SVG Version: 6.00 Build 0)  -->
<!DOCTYPE svg PUBLIC "-//W3C//DTD SVG 1.1//EN" "http://www.w3.org/Graphics/SVG/1.1/DTD/svg11.dtd">
<svg version="1.1" id="Layer_1" xmlns="http://www.w3.org/2000/svg" xmlns:xlink="http://www.w3.org/1999/xlink" x="0px" y="0px"
	 width="263.167px" height="21.335px" viewBox="0 0 263.167 21.335" enable-background="new 0 0 263.167 21.335"
	 xml:space="preserve">
<path fill="#FFFFFF" d="M0,20.449V0.056h1.143v19.223h5.741v1.17H0z"/>
<path fill="#FFFFFF" d="M24.99,20.449l-2.342-6.111h-9.282l-2.371,6.111H9.853l8.14-21.05l8.168,21.05H24.99z M17.993,2.37
	l-4.169,10.795h8.339L17.993,2.37z"/>
<path fill="#FFFFFF" d="M41.098,18.792c-1.238,1.104-2.751,1.656-4.541,1.656h-6.369V0.056h4.97c1.58,0,2.837,0.41,3.77,1.229
	c0.99,0.876,1.485,2.095,1.485,3.655c0,1.79-0.733,3.104-2.199,3.941c1.428,0.285,2.58,0.934,3.456,1.94
	c0.857,1.011,1.285,2.249,1.285,3.714C42.955,16.289,42.335,17.707,41.098,18.792z M38.1,2.256
	c-0.781-0.687-1.733-1.028-2.856-1.028h-3.913v7.426h4.084c1.104,0,2.018-0.343,2.742-1.027c0.723-0.687,1.085-1.58,1.085-2.686
	C39.242,3.798,38.86,2.903,38.1,2.256z M40.242,11.082c-0.971-0.838-2.19-1.257-3.656-1.257h-5.255v9.454h5.255
	c1.447,0,2.675-0.438,3.684-1.312c1.028-0.875,1.542-2.02,1.542-3.428C41.812,13.109,41.289,11.957,40.242,11.082z"/>
<path fill="#999999" d="M63.975,19.25c-1.066,0.781-2.513,1.256-4.341,1.431c-0.209,0.021-0.438,0.03-0.686,0.043
	c-0.248,0.01-0.504,0.014-0.771,0.014c-3.084,0-5.598-0.971-7.54-2.911c-1.961-1.961-2.941-4.484-2.941-7.57
	c0-3.085,0.971-5.599,2.913-7.54c1.961-1.961,4.484-2.942,7.568-2.942c1.751,0,3.332,0.257,4.741,0.771
	c0.837,0.324,1.646,0.791,2.428,1.398v1.455c-0.8-0.666-1.676-1.199-2.628-1.599c-1.447-0.59-2.961-0.885-4.541-0.885
	c-2.704,0-4.932,0.876-6.683,2.627c-1.752,1.752-2.627,3.988-2.627,6.712s0.866,4.954,2.599,6.685
	c1.751,1.752,3.988,2.627,6.711,2.627c1.694,0,3.17-0.308,4.427-0.914c0.724-0.36,1.638-0.942,2.742-1.741v1.342L63.975,19.25z"/>
<path fill="#999999" d="M85.909,17.792c-1.961,1.961-4.483,2.94-7.568,2.94c-3.084,0-5.598-0.971-7.54-2.912
	c-1.962-1.961-2.94-4.483-2.94-7.569c0-3.085,0.972-5.599,2.914-7.54c1.961-1.961,4.482-2.942,7.566-2.942
	c3.064,0,5.59,0.972,7.568,2.913c1.961,1.961,2.941,4.484,2.941,7.569C88.851,13.337,87.87,15.851,85.909,17.792z M85.081,3.541
	c-1.752-1.751-4-2.627-6.74-2.627c-2.703,0-4.932,0.876-6.684,2.627c-1.752,1.752-2.627,3.988-2.627,6.712
	c0,2.723,0.865,4.952,2.6,6.684c1.75,1.752,3.988,2.627,6.711,2.627c2.742,0,4.988-0.855,6.74-2.568c1.73-1.731,2.6-3.979,2.6-6.742
	C87.681,7.51,86.813,5.274,85.081,3.541z"/>
<path fill="#999999" d="M107.13,20.449l-2.342-6.111h-9.281l-2.372,6.111h-1.144l8.141-21.05l8.169,21.05H107.13z M100.135,2.37
	l-4.171,10.795h8.342L100.135,2.37z"/>
<path fill="#999999" d="M115.385,1.227v19.222h-1.171V1.227H109.7V0.056h10.195v1.171H115.385z"/>
<g>
	<path fill="#999999" d="M124.409,0.55h-1.367V0.056h3.328v0.493h-1.373v4h-0.588V0.55L124.409,0.55z"/>
	<path fill="#999999" d="M130.653,2.577c-0.033-0.627-0.072-1.388-0.072-1.94h-0.016c-0.158,0.52-0.34,1.087-0.564,1.707
		l-0.793,2.18h-0.439l-0.731-2.14c-0.213-0.64-0.388-1.214-0.515-1.747h-0.016c-0.014,0.56-0.047,1.307-0.086,1.987l-0.12,1.926
		h-0.554l0.312-4.494h0.738l0.77,2.174c0.188,0.554,0.334,1.046,0.453,1.514h0.017c0.116-0.453,0.276-0.947,0.479-1.514l0.799-2.174
		h0.74l0.28,4.494h-0.573L130.653,2.577z"/>
</g>
<g>
	<path fill="#FFFFFF" d="M170.041,9.754l3.131-1.325c0,0-1.115-3.555-5.652-3.555c-4.538,0-6.957,3.03-6.957,6.792
		c0,3.763,2.576,6.705,6.704,6.705c4.126,0,6.589-2.58,6.589-7.461h-6.575v2.544l2.654,0.005c0,0-0.058,2.19-2.657,2.19
		c-2.603,0-3.228-2.882-3.228-4.027c0-1.145,0.64-3.87,3.254-3.87C167.304,7.752,169.142,7.546,170.041,9.754z"/>
	<path fill="#FFFFFF" d="M208.721,9.754l3.133-1.325c0,0-1.115-3.555-5.654-3.555c-4.538,0-6.956,3.03-6.956,6.792
		c0,3.763,2.577,6.705,6.707,6.705c4.126,0,6.59-2.58,6.59-7.461h-6.58v2.544l2.655,0.005c0,0-0.057,2.19-2.655,2.19
		c-2.603,0-3.229-2.882-3.229-4.027c0-1.145,0.641-3.87,3.249-3.87C205.979,7.752,207.822,7.546,208.721,9.754z"/>
	<path fill="#FFFFFF" d="M178.389,9.269v1.379h0.063c0,0,0.742-1.455,2.452-1.455c1.712,0,0.946,0,0.946,0v2.959h-0.162
		c0,0-0.38-0.232-1.144-0.232s-2.156,0.205-2.156,2.687c0,2.479,0,3.369,0,3.369h-3.048V9.269H178.389z"/>
	<rect x="182.918" y="9.269" fill="#FFFFFF" width="3.096" height="8.707"/>
	<circle fill="#FFFFFF" cx="184.465" cy="5.984" r="1.702"/>
	<rect x="225.519" y="9.269" fill="#FFFFFF" width="3.098" height="8.707"/>
	<circle fill="#FFFFFF" cx="227.07" cy="5.984" r="1.702"/>
	<path fill="#FFFFFF" d="M194.499,3.914v6.09c-0.126-0.128-1.016-0.974-2.568-0.974c-1.675,0-4.395,1.146-4.395,4.592
		c0,3.445,2.735,4.628,4.379,4.628c1.52,0,2.454-0.938,2.584-1.075v0.802h3.094V3.914H194.499z M192.685,15.582
		c-1.059,0-1.913-0.855-1.913-1.908c0-1.054,0.854-1.908,1.913-1.908s1.917,0.854,1.917,1.908
		C194.602,14.726,193.743,15.582,192.685,15.582z"/>
	<path fill="#FFFFFF" d="M220.362,9.193v0.811c-0.125-0.128-1.016-0.974-2.566-0.974c-1.677,0-4.396,1.146-4.396,4.592
		c0,3.445,2.735,4.628,4.379,4.628c1.521,0,2.453-0.938,2.583-1.075v0.802h3.097V9.193H220.362z M218.551,15.582
		c-1.06,0-1.92-0.855-1.92-1.908c0-1.054,0.86-1.908,1.92-1.908c1.056,0,1.914,0.854,1.914,1.908
		C220.465,14.726,219.606,15.582,218.551,15.582z"/>
	<path fill="#FFFFFF" d="M236.497,9.03c0,0-1.756-0.124-2.807,1.364V9.269h-3.093v8.707h3.093v-4.872
		c0.045-0.578,0.292-1.578,1.518-1.578c0,0,1.427-0.056,1.427,1.928s0.021,4.522,0.021,4.522h3.115v-5.149
		C239.771,12.827,240.136,9.03,236.497,9.03z"/>
	<polygon fill="#ED2F24" points="254.049,11.942 256.765,10.771 254.4,8.985 	"/>
	<polygon fill="#E81E25" points="251.707,10.166 254.4,8.985 254.049,11.942 	"/>
	<polygon fill="#DE5198" points="256.37,13.647 256.765,10.771 254.049,11.942 	"/>
	<polygon fill="#E6E539" points="251.305,12.971 254.049,11.942 251.707,10.166 	"/>
	<polygon fill="#EBE230" points="253.694,14.797 254.049,11.942 251.305,12.971 	"/>
	<polygon fill="#D93C95" points="256.37,13.647 254.049,11.942 253.694,14.797 	"/>
	<polygon fill="#63C9E1" points="249.336,8.391 252.051,7.219 249.69,5.433 	"/>
	<polygon fill="#6CBDD9" points="246.994,6.613 249.69,5.433 249.336,8.391 	"/>
	<polygon fill="#F7ECED" points="251.656,10.095 252.051,7.219 249.336,8.391 	"/>
	<polygon fill="#DF3A92" points="246.592,9.417 249.336,8.391 246.994,6.613 	"/>
	<polygon fill="#E35298" points="248.983,11.246 249.336,8.391 246.592,9.417 	"/>
	<polygon fill="#FCECF0" points="251.656,10.095 249.336,8.391 248.983,11.246 	"/>
	<polygon fill="#FFFFFF" points="248.649,14.202 251.364,13.033 249.003,11.246 	"/>
	<polygon fill="#F0F8F9" points="246.309,12.426 249.003,11.246 248.649,14.202 	"/>
	<polygon fill="#FFFFFF" points="250.973,15.909 251.364,13.033 248.649,14.202 	"/>
	<polygon fill="#51C4D1" points="245.902,15.231 248.649,14.202 246.309,12.426 	"/>
	<polygon fill="#4DC5DB" points="248.296,17.057 248.649,14.202 245.902,15.231 	"/>
	<polygon fill="#F2F5FA" points="250.973,15.909 248.649,14.202 248.296,17.057 	"/>
	<polygon fill="#FFFFFF" points="253.354,17.753 256.066,16.584 253.706,14.797 	"/>
	<polygon fill="#FFFFFF" points="251.011,15.979 253.706,14.797 253.354,17.753 	"/>
	<polygon fill="#63C9DF" points="255.673,19.46 256.066,16.584 253.354,17.753 	"/>
	<polygon fill="#ED3024" points="250.608,18.784 253.354,17.753 251.011,15.979 	"/>
	<polygon fill="#E41F26" points="252.998,20.61 253.354,17.753 250.608,18.784 	"/>
	<polygon fill="#71BEC7" points="255.673,19.46 253.354,17.753 252.998,20.61 	"/>
	<polygon fill="#FDE5D8" points="258.7,15.534 261.414,14.365 259.056,12.578 	"/>
	<polygon fill="#FDE5D7" points="256.358,13.758 259.056,12.578 258.7,15.534 	"/>
	<polygon fill="#E41F26" points="261.022,17.24 261.414,14.365 258.7,15.534 	"/>
	<polygon fill="#FFFFFF" points="255.956,16.564 258.7,15.534 256.358,13.758 	"/>
	<polygon fill="#F9FAE8" points="258.348,18.391 258.7,15.534 255.956,16.564 	"/>
	<polygon fill="#EB3124" points="261.022,17.24 258.7,15.534 258.348,18.391 	"/>
	<polygon fill="#EAE61D" points="259.507,9.704 262.223,8.533 259.862,6.748 	"/>
	<polygon fill="#E9E61F" points="257.168,7.928 259.862,6.748 259.507,9.704 	"/>
	<polygon fill="#E7E51F" points="261.828,11.411 262.223,8.533 259.507,9.704 	"/>
	<polygon fill="#FFFCE9" points="256.765,10.733 259.507,9.704 257.168,7.928 	"/>
	<polygon fill="#FFFFFF" points="259.155,12.559 259.507,9.704 256.765,10.733 	"/>
	<polygon fill="#E7E51F" points="261.828,11.411 259.507,9.704 259.155,12.559 	"/>
	<polygon fill="#DC3A94" points="254.797,6.129 257.512,4.957 255.148,3.173 	"/>
	<polygon fill="#E25391" points="252.455,4.352 255.148,3.173 254.797,6.129 	"/>
	<polygon fill="#FFFDF0" points="257.115,7.834 257.512,4.957 254.797,6.129 	"/>
	<polygon fill="#F9FAE8" points="252.051,7.158 254.797,6.129 252.455,4.352 	"/>
	<polygon fill="#FFFFFF" points="254.441,8.985 254.797,6.129 252.051,7.158 	"/>
	<polygon fill="#FAFBEC" points="257.115,7.834 254.797,6.129 254.441,8.985 	"/>
</g>
<text transform="matrix(1 0 0 1 138.501 17.9243)" fill="#E6E6E6" font-family="'Verdana'" font-size="12">by</text>
</svg>
